<svg xmlns="http://www.w3.org/2000/svg" width="22" height="12" viewBox="0 0 22 12">
    <g fill="#D0021B" fill-rule="evenodd">
        <text font-family="Calibri" font-size="14" transform="translate(0 -4)">
            <tspan x="30.795" y="13">Last few rooms available</tspan>
        </text>
        <path fill-rule="nonzero" d="M20.628 11.77a.215.215 0 0 1-.183-.103l-.87-1.41H1.56l-.87 1.41a.215.215 0 0 1-.297.07l-.29-.18a.215.215 0 0 1-.07-.296l.618-1.004h-.29a.216.216 0 0 1-.216-.216V6.692c0-.119.097-.215.216-.215h.784v-.449l.001-.027V.446c0-.119.097-.215.216-.215h18.56c.119 0 .216.096.216.215v6.03h.785c.12 0 .216.097.216.216v3.35a.216.216 0 0 1-.216.215h-.44l.62 1.004a.216.216 0 0 1-.07.297l-.292.18a.217.217 0 0 1-.113.031zm-.263-2.286V7.25H.918v2.234h19.447zm-1.002-3.007v-.373c0-1.107-.9-2.007-2.006-2.007h-4.324c-1.07 0-1.95.838-2.003 1.908-.003.038-.003.068-.003.099v.373h8.336zm-9.109 0v-.48a2.014 2.014 0 0 0-2.006-1.975H3.924A2.01 2.01 0 0 0 1.92 6.017v.46h8.334zM8.248 3.249c1.005 0 1.926.55 2.414 1.407a2.765 2.765 0 0 1 2.372-1.331h4.323c.764 0 1.488.32 2.007.863V1.004H1.92V4.11a2.783 2.783 0 0 1 2.004-.86h4.324z"/>
    </g>
</svg>
