<svg xmlns="http://www.w3.org/2000/svg" width="21" height="25" viewBox="0 0 21 25">
    <g fill="#4A4A4A" fill-rule="evenodd">
        <path d="M19.048 21.99c0 .565-.445 1.026-.992 1.026H2.184c-.547 0-.992-.461-.992-1.027V9.702c0-.567.445-1.027.992-1.027h15.872c.547 0 .992.46.992 1.027v12.287zM5.656 6c0-2.479 2.003-4.496 4.464-4.496 2.462 0 4.464 2.017 4.464 4.497v1.65H5.656V6zm12.4 1.65h-2.48V6c0-3.043-2.448-5.52-5.456-5.52C7.112.48 4.664 2.957 4.664 6v1.65h-2.48C1.091 7.65.2 8.57.2 9.702v12.287c0 1.135.888 2.05 1.984 2.05h15.872c1.093 0 1.984-.917 1.984-2.05V9.702c0-1.135-.888-2.052-1.984-2.052z"/>
        <path d="M10.5 18.126a.943.943 0 0 1-.93-.954c0-.526.418-.954.93-.954.513 0 .93.428.93.954a.943.943 0 0 1-.93.954m.465-2.794V12.88h-.93v2.452a1.895 1.895 0 0 0-1.395 1.84c0 1.054.833 1.908 1.86 1.908 1.028 0 1.86-.854 1.86-1.908 0-.887-.594-1.627-1.395-1.84"/>
    </g>
</svg>
