<svg xmlns="http://www.w3.org/2000/svg" xmlns:xlink="http://www.w3.org/1999/xlink" width="25" height="25" viewBox="0 0 25 25">
    <defs>
        <path id="a" d="M.612 12.576C.612 5.799 6.17.306 13.028.306c6.857 0 12.416 5.493 12.416 12.27 0 6.778-5.559 12.27-12.416 12.27-6.858 0-12.416-5.492-12.416-12.27z"/>
        <path id="c" d="M.223 3.902C.223 1.76 1.995.008 4.16.008S8.096 1.76 8.096 3.902c0 2.143-1.77 3.895-3.936 3.895-2.165 0-3.937-1.752-3.937-3.895z"/>
        <path id="e" d="M.092 4.918C.093 1.923 6.074.483 9.122.483c3.048 0 9.028 1.44 9.03 4.435H.091z"/>
    </defs>
    <g fill="none" fill-rule="evenodd">
        <g transform="translate(-.52 -.224)">
            <mask id="b" fill="#fff">
                <use xlink:href="#a"/>
            </mask>
            <path fill="#4A4A4A" d="M13.028 1.215c-6.34 0-11.497 5.097-11.497 11.362 0 6.264 5.157 11.361 11.497 11.361 6.339 0 11.496-5.097 11.496-11.361 0-6.265-5.157-11.362-11.496-11.362m0 24.54c-7.353 0-13.336-5.911-13.336-13.178 0-7.268 5.983-13.18 13.336-13.18 7.352 0 13.336 5.912 13.336 13.18 0 7.267-5.984 13.178-13.336 13.178" mask="url(#b)"/>
        </g>
        <g transform="translate(8.334 6.21)">
            <mask id="d" fill="#fff">
                <use xlink:href="#c"/>
            </mask>
            <path fill="#4A4A4A" d="M4.16.917c-1.663 0-3.017 1.34-3.017 2.985 0 1.647 1.354 2.986 3.017 2.986 1.663 0 3.017-1.34 3.017-2.986C7.177 2.256 5.823.917 4.16.917m0 7.79c-2.678 0-4.855-2.156-4.855-4.805 0-2.648 2.177-4.803 4.855-4.803 2.678 0 4.855 2.155 4.855 4.803 0 2.65-2.177 4.804-4.855 4.804" mask="url(#d)"/>
        </g>
        <g transform="translate(3.386 15.216)">
            <mask id="f" fill="#fff">
                <use xlink:href="#e"/>
            </mask>
            <path fill="#4A4A4A" d="M19.072 4.918h-1.84c0-2.012-4.92-3.527-8.111-3.527-3.19 0-8.11 1.515-8.11 3.527H-.828c0-1.203.685-2.906 3.953-4.185 2.186-.856 4.596-1.16 5.996-1.16 1.402 0 3.812.304 5.997 1.16 3.268 1.279 3.954 2.982 3.954 4.185" mask="url(#f)"/>
        </g>
    </g>
</svg>
